MutatorSansInstance_600-500.ufo
<glyph name="comma" format="2">
  <advance width="260"/>
  <unicode hex="002C"/>
  <outline>
    <contour>
      <point x="197" y="0" type="line"/>
      <point x="197" y="248" type="line"/>
      <point x="63" y="248" type="line"/>
      <point x="63" y="0" type="line"/>
      <point x="124" y="-13" type="line"/>
      <point x="114" y="12" type="line"/>
      <point x="92" y="-123" type="line"/>
      <point x="140" y="-125" type="line"/>
    </contour>
  </outline>
</glyph>
<glyph name="period" format="2">
  <advance width="260"/>
  <unicode hex="002E"/>
  <outline>
    <contour>
      <point x="63" y="0" type="line"/>
      <point x="197" y="0" type="line"/>
      <point x="197" y="248" type="line"/>
      <point x="63" y="248" type="line"/>
    </contour>
  </outline>
</glyph>
<glyph name="A" format="2">
  <advance width="929"/>
  <unicode hex="0041"/>
  <outline>
    <contour>
      <point x="25" y="0" type="line"/>
      <point x="213" y="0" type="line"/>
      <point x="455" y="760" type="line"/>
      <point x="292" y="760" type="line"/>
    </contour>
    <contour>
      <point x="162" y="150" type="line"/>
      <point x="712" y="150" type="line"/>
      <point x="712" y="292" type="line"/>
      <point x="162" y="292" type="line"/>
    </contour>
    <contour>
      <point x="643" y="0" type="line"/>
      <point x="905" y="0" type="line"/>
      <point x="637" y="760" type="line"/>
      <point x="389" y="760" type="line"/>
    </contour>
    <contour>
      <point x="333" y="589" type="line"/>
      <point x="564" y="589" type="line"/>
      <point x="564" y="760" type="line"/>
      <point x="333" y="760" type="line"/>
    </contour>
  </outline>
</glyph>
<glyph name="B" format="2">
  <advance width="926"/>
  <unicode hex="0042"/>
  <outline>
    <contour>
      <point x="63" y="0" type="line"/>
      <point x="298" y="0" type="line"/>
      <point x="298" y="760" type="line"/>
      <point x="63" y="760" type="line"/>
    </contour>
    <contour>
      <point x="263" y="338" type="line"/>
      <point x="556" y="338" type="line" smooth="yes"/>
      <point x="622" y="338"/>
      <point x="660" y="309"/>
      <point x="660" y="247" type="curve" smooth="yes"/>
      <point x="660" y="187"/>
      <point x="622" y="157"/>
      <point x="554" y="157" type="curve" smooth="yes"/>
      <point x="263" y="157" type="line"/>
      <point x="263" y="0" type="line"/>
      <point x="618" y="0" type="line" smooth="yes"/>
      <point x="833" y="0"/>
      <point x="893" y="89"/>
      <point x="893" y="211" type="curve" smooth="yes"/>
      <point x="893" y="323"/>
      <point x="834" y="390"/>
      <point x="729" y="405" type="curve"/>
      <point x="717" y="365" type="line"/>
      <point x="800" y="383"/>
      <point x="865" y="442"/>
      <point x="865" y="545" type="curve" smooth="yes"/>
      <point x="865" y="674"/>
      <point x="797" y="760"/>
      <point x="582" y="760" type="curve" smooth="yes"/>
      <point x="263" y="760" type="line"/>
      <point x="263" y="610" type="line"/>
      <point x="528" y="610" type="line" smooth="yes"/>
      <point x="600" y="610"/>
      <point x="635" y="580"/>
      <point x="635" y="522" type="curve" smooth="yes"/>
      <point x="635" y="458"/>
      <point x="597" y="432"/>
      <point x="528" y="432" type="curve" smooth="yes"/>
      <point x="263" y="432" type="line"/>
    </contour>
  </outline>
</glyph>
<glyph name="C" format="2">
  <advance width="1019"/>
  <unicode hex="0043"/>
  <outline>
    <contour>
      <point x="744" y="330" type="line"/>
      <point x="728" y="208"/>
      <point x="654" y="163"/>
      <point x="537" y="163" type="curve" smooth="yes"/>
      <point x="494" y="163" type="line" smooth="yes"/>
      <point x="364" y="163"/>
      <point x="286" y="224"/>
      <point x="286" y="383" type="curve" smooth="yes"/>
      <point x="286" y="538"/>
      <point x="364" y="597"/>
      <point x="494" y="597" type="curve" smooth="yes"/>
      <point x="537" y="597" type="line" smooth="yes"/>
      <point x="653" y="597"/>
      <point x="727" y="554"/>
      <point x="744" y="436" type="curve"/>
      <point x="975" y="461" type="line"/>
      <point x="944" y="673"/>
      <point x="788" y="770"/>
      <point x="555" y="770" type="curve" smooth="yes"/>
      <point x="475" y="770" type="line" smooth="yes"/>
      <point x="210" y="770"/>
      <point x="44" y="649"/>
      <point x="44" y="383" type="curve" smooth="yes"/>
      <point x="44" y="114"/>
      <point x="210" y="-10"/>
      <point x="475" y="-10" type="curve" smooth="yes"/>
      <point x="555" y="-10" type="line" smooth="yes"/>
      <point x="789" y="-10"/>
      <point x="946" y="90"/>
      <point x="975" y="307" type="curve"/>
    </contour>
  </outline>
</glyph>
<glyph name="D" format="2">
  <advance width="926"/>
  <unicode hex="0044"/>
  <outline>
    <contour>
      <point x="63" y="0" type="line"/>
      <point x="292" y="0" type="line"/>
      <point x="292" y="760" type="line"/>
      <point x="63" y="760" type="line"/>
    </contour>
    <contour>
      <point x="253" y="593" type="line"/>
      <point x="424" y="593" type="line" smooth="yes"/>
      <point x="558" y="593"/>
      <point x="640" y="538"/>
      <point x="640" y="383" type="curve" smooth="yes"/>
      <point x="640" y="224"/>
      <point x="558" y="167"/>
      <point x="424" y="167" type="curve" smooth="yes"/>
      <point x="251" y="167" type="line"/>
      <point x="251" y="0" type="line"/>
      <point x="442" y="0" type="line" smooth="yes"/>
      <point x="711" y="0"/>
      <point x="882" y="116"/>
      <point x="882" y="383" type="curve" smooth="yes"/>
      <point x="882" y="647"/>
      <point x="711" y="760"/>
      <point x="442" y="760" type="curve" smooth="yes"/>
      <point x="253" y="760" type="line"/>
    </contour>
  </outline>
</glyph>
<glyph name="E" format="2">
  <advance width="839"/>
  <unicode hex="0045"/>
  <anchor x="416" y="803" name="top"/>
  <outline>
    <contour>
      <point x="66" y="0" type="line"/>
      <point x="295" y="0" type="line"/>
      <point x="295" y="760" type="line"/>
      <point x="66" y="760" type="line"/>
    </contour>
    <contour>
      <point x="128" y="584" type="line"/>
      <point x="780" y="584" type="line"/>
      <point x="780" y="760" type="line"/>
      <point x="128" y="760" type="line"/>
    </contour>
    <contour>
      <point x="128" y="0" type="line"/>
      <point x="780" y="0" type="line"/>
      <point x="780" y="176" type="line"/>
      <point x="128" y="176" type="line"/>
    </contour>
    <contour>
      <point x="128" y="323" type="line"/>
      <point x="678" y="323" type="line"/>
      <point x="678" y="439" type="line"/>
      <point x="128" y="439" type="line"/>
    </contour>
  </outline>
</glyph>
<glyph name="F" format="2">
  <advance width="841"/>
  <unicode hex="0046"/>
  <outline>
    <contour>
      <point x="63" y="0" type="line"/>
      <point x="301" y="0" type="line"/>
      <point x="301" y="760" type="line"/>
      <point x="63" y="760" type="line"/>
    </contour>
    <contour>
      <point x="128" y="590" type="line"/>
      <point x="778" y="590" type="line"/>
      <point x="778" y="760" type="line"/>
      <point x="128" y="760" type="line"/>
    </contour>
    <contour>
      <point x="128" y="275" type="line"/>
      <point x="732" y="275" type="line"/>
      <point x="732" y="421" type="line"/>
      <point x="128" y="421" type="line"/>
    </contour>
  </outline>
</glyph>
<glyph name="G" format="2">
  <advance width="1048"/>
  <unicode hex="0047"/>
  <outline>
    <contour>
      <point x="462" y="306" type="line"/>
      <point x="776" y="306" type="line"/>
      <point x="776" y="216" type="line"/>
      <point x="871" y="0" type="line"/>
      <point x="987" y="0" type="line"/>
      <point x="987" y="382" type="line"/>
      <point x="462" y="382" type="line"/>
    </contour>
    <contour>
      <point x="760" y="337" type="line"/>
      <point x="744" y="211"/>
      <point x="668" y="163"/>
      <point x="547" y="163" type="curve" smooth="yes"/>
      <point x="494" y="163" type="line" smooth="yes"/>
      <point x="364" y="163"/>
      <point x="286" y="224"/>
      <point x="286" y="383" type="curve" smooth="yes"/>
      <point x="286" y="538"/>
      <point x="367" y="597"/>
      <point x="500" y="597" type="curve" smooth="yes"/>
      <point x="553" y="597" type="line" smooth="yes"/>
      <point x="670" y="597"/>
      <point x="743" y="554"/>
      <point x="760" y="436" type="curve"/>
      <point x="982" y="461" type="line"/>
      <point x="951" y="673"/>
      <point x="798" y="770"/>
      <point x="566" y="770" type="curve" smooth="yes"/>
      <point x="477" y="770" type="line" smooth="yes"/>
      <point x="212" y="770"/>
      <point x="44" y="649"/>
      <point x="44" y="383" type="curve" smooth="yes"/>
      <point x="44" y="114"/>
      <point x="210" y="-10"/>
      <point x="475" y="-10" type="curve" smooth="yes"/>
      <point x="511" y="-10" type="line" smooth="yes"/>
      <point x="744" y="-10"/>
      <point x="894" y="93"/>
      <point x="922" y="314" type="curve"/>
    </contour>
  </outline>
</glyph>
<glyph name="H" format="2">
  <advance width="953"/>
  <unicode hex="0048"/>
  <outline>
    <contour>
      <point x="63" y="0" type="line"/>
      <point x="301" y="0" type="line"/>
      <point x="301" y="760" type="line"/>
      <point x="63" y="760" type="line"/>
    </contour>
    <contour>
      <point x="156" y="293" type="line"/>
      <point x="799" y="293" type="line"/>
      <point x="799" y="463" type="line"/>
      <point x="156" y="463" type="line"/>
    </contour>
    <contour>
      <point x="652" y="0" type="line"/>
      <point x="890" y="0" type="line"/>
      <point x="890" y="760" type="line"/>
      <point x="652" y="760" type="line"/>
    </contour>
  </outline>
</glyph>
<glyph name="I" format="2">
  <advance width="724"/>
  <unicode hex="0049"/>
  <outline>
    <contour>
      <point x="244" y="0" type="line"/>
      <point x="482" y="0" type="line"/>
      <point x="482" y="760" type="line"/>
      <point x="244" y="760" type="line"/>
    </contour>
    <contour>
      <point x="63" y="581" type="line"/>
      <point x="661" y="581" type="line"/>
      <point x="661" y="760" type="line"/>
      <point x="63" y="760" type="line"/>
    </contour>
    <contour>
      <point x="63" y="0" type="line"/>
      <point x="661" y="0" type="line"/>
      <point x="661" y="179" type="line"/>
      <point x="63" y="179" type="line"/>
    </contour>
  </outline>
</glyph>
<glyph name="J" format="2">
  <advance width="716"/>
  <unicode hex="004A"/>
  <outline>
    <contour>
      <point x="217" y="-10" type="curve" smooth="yes"/>
      <point x="486" y="-10"/>
      <point x="653" y="103"/>
      <point x="653" y="348" type="curve" smooth="yes"/>
      <point x="653" y="760" type="line"/>
      <point x="411" y="760" type="line"/>
      <point x="411" y="376" type="line" smooth="yes"/>
      <point x="411" y="234"/>
      <point x="334" y="178"/>
      <point x="206" y="178" type="curve" smooth="yes"/>
      <point x="174" y="178"/>
      <point x="135" y="181"/>
      <point x="96" y="189" type="curve"/>
      <point x="63" y="7" type="line"/>
      <point x="109" y="-5"/>
      <point x="161" y="-10"/>
    </contour>
  </outline>
</glyph>
<glyph name="K" format="2">
  <advance width="930"/>
  <unicode hex="004B"/>
  <outline>
    <contour>
      <point x="63" y="0" type="line"/>
      <point x="301" y="0" type="line"/>
      <point x="301" y="760" type="line"/>
      <point x="63" y="760" type="line"/>
    </contour>
    <contour>
      <point x="236" y="313" type="line"/>
      <point x="329" y="313" type="line"/>
      <point x="607" y="0" type="line"/>
      <point x="901" y="0" type="line"/>
      <point x="524" y="459" type="line"/>
      <point x="338" y="411" type="line"/>
      <point x="236" y="411" type="line"/>
    </contour>
    <contour>
      <point x="314" y="389" type="line"/>
      <point x="465" y="319" type="line"/>
      <point x="893" y="760" type="line"/>
      <point x="627" y="760" type="line"/>
    </contour>
  </outline>
</glyph>
<glyph name="L" format="2">
  <advance width="754"/>
  <unicode hex="004C"/>
  <outline>
    <contour>
      <point x="63" y="0" type="line"/>
      <point x="301" y="0" type="line"/>
      <point x="301" y="760" type="line"/>
      <point x="63" y="760" type="line"/>
    </contour>
    <contour>
      <point x="128" y="0" type="line"/>
      <point x="728" y="0" type="line"/>
      <point x="728" y="173" type="line"/>
      <point x="128" y="173" type="line"/>
    </contour>
  </outline>
</glyph>
<glyph name="M" format="2">
  <advance width="992"/>
  <unicode hex="004D"/>
  <outline>
    <contour>
      <point x="63" y="0" type="line"/>
      <point x="250" y="0" type="line"/>
      <point x="250" y="760" type="line"/>
      <point x="63" y="760" type="line"/>
    </contour>
    <contour>
      <point x="929" y="0" type="line"/>
      <point x="929" y="760" type="line"/>
      <point x="742" y="760" type="line"/>
      <point x="742" y="0" type="line"/>
    </contour>
    <contour>
      <point x="826" y="513" type="line"/>
      <point x="742" y="760" type="line"/>
      <point x="477" y="450" type="line"/>
      <point x="514" y="450" type="line"/>
      <point x="250" y="760" type="line"/>
      <point x="166" y="513" type="line"/>
      <point x="458" y="184" type="line"/>
      <point x="534" y="184" type="line"/>
    </contour>
  </outline>
</glyph>
<glyph name="N" format="2">
  <advance width="954"/>
  <unicode hex="004E"/>
  <outline>
    <contour>
      <point x="63" y="0" type="line"/>
      <point x="249" y="0" type="line"/>
      <point x="249" y="760" type="line"/>
      <point x="63" y="760" type="line"/>
    </contour>
    <contour>
      <point x="153" y="554" type="line"/>
      <point x="704" y="0" type="line"/>
      <point x="801" y="206" type="line"/>
      <point x="249" y="760" type="line"/>
    </contour>
    <contour>
      <point x="704" y="0" type="line"/>
      <point x="890" y="0" type="line"/>
      <point x="890" y="760" type="line"/>
      <point x="704" y="760" type="line"/>
    </contour>
  </outline>
</glyph>
<glyph name="O" format="2">
  <advance width="1032"/>
  <unicode hex="004F"/>
  <outline>
    <contour>
      <point x="475" y="-10" type="curve" smooth="yes"/>
      <point x="557" y="-10" type="line" smooth="yes"/>
      <point x="821" y="-10"/>
      <point x="988" y="114"/>
      <point x="988" y="383" type="curve" smooth="yes"/>
      <point x="988" y="649"/>
      <point x="821" y="770"/>
      <point x="557" y="770" type="curve" smooth="yes"/>
      <point x="475" y="770" type="line" smooth="yes"/>
      <point x="210" y="770"/>
      <point x="44" y="649"/>
      <point x="44" y="383" type="curve" smooth="yes"/>
      <point x="44" y="114"/>
      <point x="210" y="-10"/>
    </contour>
    <contour>
      <point x="494" y="163" type="line" smooth="yes"/>
      <point x="364" y="163"/>
      <point x="286" y="224"/>
      <point x="286" y="383" type="curve" smooth="yes"/>
      <point x="286" y="538"/>
      <point x="364" y="597"/>
      <point x="494" y="597" type="curve" smooth="yes"/>
      <point x="539" y="597" type="line" smooth="yes"/>
      <point x="669" y="597"/>
      <point x="746" y="538"/>
      <point x="746" y="383" type="curve" smooth="yes"/>
      <point x="746" y="224"/>
      <point x="669" y="163"/>
      <point x="539" y="163" type="curve" smooth="yes"/>
    </contour>
  </outline>
</glyph>
<glyph name="P" format="2">
  <advance width="877"/>
  <unicode hex="0050"/>
  <outline>
    <contour>
      <point x="63" y="0" type="line"/>
      <point x="301" y="0" type="line"/>
      <point x="301" y="760" type="line"/>
      <point x="63" y="760" type="line"/>
    </contour>
    <contour>
      <point x="221" y="582" type="line"/>
      <point x="481" y="582" type="line" smooth="yes"/>
      <point x="593" y="582"/>
      <point x="634" y="539"/>
      <point x="634" y="455" type="curve" smooth="yes"/>
      <point x="634" y="368"/>
      <point x="593" y="327"/>
      <point x="481" y="327" type="curve" smooth="yes"/>
      <point x="221" y="327" type="line"/>
      <point x="221" y="149" type="line"/>
      <point x="473" y="149" type="line" smooth="yes"/>
      <point x="763" y="149"/>
      <point x="851" y="263"/>
      <point x="851" y="455" type="curve" smooth="yes"/>
      <point x="851" y="647"/>
      <point x="763" y="760"/>
      <point x="474" y="760" type="curve" smooth="yes"/>
      <point x="221" y="760" type="line"/>
    </contour>
  </outline>
</glyph>
<glyph name="Q" format="2">
  <advance width="1032"/>
  <unicode hex="0051"/>
  <outline>
    <contour>
      <point x="499" y="-130" type="line"/>
      <point x="735" y="-130" type="line"/>
      <point x="621" y="107" type="line"/>
      <point x="397" y="100" type="line"/>
    </contour>
    <component base="O"/>
  </outline>
</glyph>
<glyph name="R" format="2">
  <advance width="894"/>
  <unicode hex="0052"/>
  <outline>
    <contour>
      <point x="602" y="0" type="line"/>
      <point x="850" y="0" type="line"/>
      <point x="779" y="134" type="line" smooth="yes"/>
      <point x="740" y="194"/>
      <point x="700" y="231"/>
      <point x="638" y="230" type="curve"/>
      <point x="485" y="230" type="line"/>
    </contour>
    <contour>
      <point x="63" y="0" type="line"/>
      <point x="301" y="0" type="line"/>
      <point x="301" y="760" type="line"/>
      <point x="63" y="760" type="line"/>
    </contour>
    <contour>
      <point x="221" y="582" type="line"/>
      <point x="486" y="582" type="line" smooth="yes"/>
      <point x="596" y="582"/>
      <point x="636" y="539"/>
      <point x="636" y="455" type="curve" smooth="yes"/>
      <point x="636" y="368"/>
      <point x="596" y="327"/>
      <point x="486" y="327" type="curve" smooth="yes"/>
      <point x="221" y="327" type="line"/>
      <point x="221" y="185" type="line"/>
      <point x="479" y="185" type="line" smooth="yes"/>
      <point x="763" y="185"/>
      <point x="854" y="293"/>
      <point x="854" y="473" type="curve" smooth="yes"/>
      <point x="854" y="654"/>
      <point x="760" y="760"/>
      <point x="477" y="760" type="curve" smooth="yes"/>
      <point x="221" y="760" type="line"/>
    </contour>
  </outline>
</glyph>
<glyph name="S" format="2">
  <advance width="894"/>
  <unicode hex="0053"/>
  <outline>
    <contour>
      <point x="848" y="221" type="curve" smooth="yes"/>
      <point x="848" y="388"/>
      <point x="752" y="444"/>
      <point x="530" y="465" type="curve" smooth="yes"/>
      <point x="408" y="476" type="line" smooth="yes"/>
      <point x="291" y="490"/>
      <point x="254" y="506"/>
      <point x="254" y="546" type="curve" smooth="yes"/>
      <point x="254" y="585"/>
      <point x="296" y="609"/>
      <point x="408" y="609" type="curve" smooth="yes"/>
      <point x="492" y="609" type="line" smooth="yes"/>
      <point x="613" y="609"/>
      <point x="717" y="593"/>
      <point x="796" y="572" type="curve"/>
      <point x="825" y="725" type="line"/>
      <point x="745" y="748"/>
      <point x="618" y="770"/>
      <point x="519" y="770" type="curve" smooth="yes"/>
      <point x="460" y="770" type="line" smooth="yes"/>
      <point x="178" y="770"/>
      <point x="56" y="686"/>
      <point x="56" y="530" type="curve" smooth="yes"/>
      <point x="56" y="379"/>
      <point x="165" y="319"/>
      <point x="374" y="298" type="curve" smooth="yes"/>
      <point x="491" y="286" type="line" smooth="yes"/>
      <point x="608" y="270"/>
      <point x="646" y="259"/>
      <point x="646" y="216" type="curve" smooth="yes"/>
      <point x="646" y="176"/>
      <point x="602" y="152"/>
      <point x="478" y="152" type="curve" smooth="yes"/>
      <point x="397" y="152" type="line" smooth="yes"/>
      <point x="271" y="152"/>
      <point x="159" y="167"/>
      <point x="72" y="191" type="curve"/>
      <point x="44" y="36" type="line"/>
      <point x="134" y="11"/>
      <point x="270" y="-10"/>
      <point x="371" y="-10" type="curve" smooth="yes"/>
      <point x="436" y="-10" type="line" smooth="yes"/>
      <point x="747" y="-10"/>
      <point x="848" y="86"/>
    </contour>
  </outline>
</glyph>
<glyph name="T" format="2">
  <advance width="880"/>
  <unicode hex="0054"/>
  <outline>
    <contour>
      <point x="321" y="0" type="line"/>
      <point x="559" y="0" type="line"/>
      <point x="559" y="760" type="line"/>
      <point x="321" y="760" type="line"/>
    </contour>
    <contour>
      <point x="26" y="578" type="line"/>
      <point x="854" y="578" type="line"/>
      <point x="854" y="760" type="line"/>
      <point x="26" y="760" type="line"/>
    </contour>
  </outline>
</glyph>
<glyph name="U" format="2">
  <advance width="954"/>
  <unicode hex="0055"/>
  <outline>
    <contour>
      <point x="476" y="-10" type="curve" smooth="yes"/>
      <point x="736" y="-10"/>
      <point x="882" y="101"/>
      <point x="882" y="340" type="curve" smooth="yes"/>
      <point x="882" y="760" type="line"/>
      <point x="640" y="760" type="line"/>
      <point x="640" y="325" type="line" smooth="yes"/>
      <point x="640" y="215"/>
      <point x="579" y="172"/>
      <point x="477" y="172" type="curve" smooth="yes"/>
      <point x="376" y="172"/>
      <point x="314" y="215"/>
      <point x="314" y="325" type="curve" smooth="yes"/>
      <point x="314" y="760" type="line"/>
      <point x="72" y="760" type="line"/>
      <point x="72" y="340" type="line" smooth="yes"/>
      <point x="72" y="101"/>
      <point x="216" y="-10"/>
    </contour>
  </outline>
</glyph>
<glyph name="V" format="2">
  <advance width="932"/>
  <unicode hex="0056"/>
  <outline>
    <contour>
      <point x="911" y="760" type="line"/>
      <point x="719" y="760" type="line"/>
      <point x="469" y="0" type="line"/>
      <point x="635" y="0" type="line"/>
    </contour>
    <contour>
      <point x="284" y="760" type="line"/>
      <point x="21" y="760" type="line"/>
      <point x="295" y="0" type="line"/>
      <point x="545" y="0" type="line"/>
    </contour>
    <contour>
      <point x="598" y="171" type="line"/>
      <point x="365" y="171" type="line"/>
      <point x="365" y="0" type="line"/>
      <point x="598" y="0" type="line"/>
    </contour>
  </outline>
</glyph>
<glyph name="W" format="2">
  <advance width="1054"/>
  <unicode hex="0057"/>
  <outline>
    <contour>
      <point x="1033" y="760" type="line"/>
      <point x="825" y="760" type="line"/>
      <point x="711" y="187" type="line"/>
      <point x="735" y="187" type="line"/>
      <point x="617" y="760" type="line"/>
      <point x="460" y="760" type="line"/>
      <point x="350" y="185" type="line"/>
      <point x="374" y="185" type="line"/>
      <point x="256" y="760" type="line"/>
      <point x="21" y="760" type="line"/>
      <point x="187" y="0" type="line"/>
      <point x="418" y="0" type="line"/>
      <point x="529" y="522" type="line"/>
      <point x="493" y="522" type="line"/>
      <point x="618" y="0" type="line"/>
      <point x="871" y="0" type="line"/>
    </contour>
  </outline>
</glyph>
<glyph name="X" format="2">
  <advance width="893"/>
  <unicode hex="0058"/>
  <outline>
    <contour>
      <point x="590" y="0" type="line"/>
      <point x="872" y="0" type="line"/>
      <point x="540" y="432" type="line"/>
      <point x="306" y="760" type="line"/>
      <point x="24" y="760" type="line"/>
      <point x="346" y="355" type="line"/>
    </contour>
    <contour>
      <point x="21" y="0" type="line"/>
      <point x="243" y="0" type="line"/>
      <point x="442" y="326" type="line"/>
      <point x="555" y="337" type="line"/>
      <point x="868" y="760" type="line"/>
      <point x="646" y="760" type="line"/>
      <point x="443" y="452" type="line"/>
      <point x="328" y="437" type="line"/>
    </contour>
  </outline>
</glyph>
<glyph name="Y" format="2">
  <advance width="867"/>
  <unicode hex="0059"/>
  <outline>
    <contour>
      <point x="848" y="760" type="line"/>
      <point x="656" y="760" type="line"/>
      <point x="399" y="205" type="line"/>
      <point x="551" y="199" type="line"/>
    </contour>
    <contour>
      <point x="272" y="760" type="line"/>
      <point x="19" y="760" type="line"/>
      <point x="316" y="199" type="line"/>
      <point x="532" y="205" type="line"/>
    </contour>
    <contour>
      <point x="552" y="288" type="line"/>
      <point x="314" y="288" type="line"/>
      <point x="314" y="0" type="line"/>
      <point x="552" y="0" type="line"/>
    </contour>
  </outline>
</glyph>
<glyph name="Z" format="2">
  <advance width="904"/>
  <unicode hex="005A"/>
  <outline>
    <contour>
      <point x="63" y="173" type="line"/>
      <point x="338" y="131" type="line"/>
      <point x="841" y="587" type="line"/>
      <point x="566" y="629" type="line"/>
    </contour>
    <contour>
      <point x="63" y="587" type="line"/>
      <point x="841" y="587" type="line"/>
      <point x="841" y="760" type="line"/>
      <point x="63" y="760" type="line"/>
    </contour>
    <contour>
      <point x="63" y="0" type="line"/>
      <point x="841" y="0" type="line"/>
      <point x="841" y="173" type="line"/>
      <point x="63" y="173" type="line"/>
    </contour>
  </outline>
</glyph>
<glyph name="I.narrow" format="2">
  <advance width="364"/>
  <outline>
    <contour>
      <point x="63" y="0" type="line"/>
      <point x="301" y="0" type="line"/>
      <point x="301" y="760" type="line"/>
      <point x="63" y="760" type="line"/>
    </contour>
  </outline>
</glyph>
